<?xml version="1.0" standalone="no"?>
<!DOCTYPE svg PUBLIC "-//W3C//DTD SVG 20010904//EN"
 "http://www.w3.org/TR/2001/REC-SVG-20010904/DTD/svg10.dtd">
<svg version="1.0" xmlns="http://www.w3.org/2000/svg"
 width="500.000000pt" height="500.000000pt" viewBox="0 0 500.000000 500.000000"
 preserveAspectRatio="xMidYMid meet">

<g transform="translate(0.000000,500.000000) scale(0.100000,-0.100000)"
fill="#000000" stroke="none">
<path d="M0 2500 l0 -2500 2500 0 2500 0 0 2500 0 2500 -2500 0 -2500 0 0
-2500z m2464 985 c36 -25 40 -25 236 -25 283 0 374 -21 523 -118 118 -77 214
-215 254 -363 23 -87 23 -262 0 -349 -32 -119 -84 -207 -172 -295 -82 -83
-140 -118 -260 -159 -58 -20 -84 -20 -799 -24 -706 -3 -738 -2 -732 15 4 10
132 305 284 656 l277 637 68 -2 68 -3 194 -445 c170 -390 198 -447 225 -465
80 -51 77 -156 -5 -191 -74 -31 -145 19 -145 102 0 36 -34 124 -167 435 -91
214 -169 389 -173 389 -6 0 -430 -978 -430 -992 0 -5 269 -8 598 -8 659 0 670
1 786 63 112 60 201 172 240 306 25 85 21 233 -7 324 -53 166 -167 278 -337
332 -82 26 -498 35 -531 11 -30 -21 -88 -21 -118 0 -60 42 -58 138 2 174 43
27 77 25 121 -5z"/>
</g>
</svg>
