<?xml version="1.0" standalone="no"?>
<!DOCTYPE svg PUBLIC "-//W3C//DTD SVG 20010904//EN"
 "http://www.w3.org/TR/2001/REC-SVG-20010904/DTD/svg10.dtd">
<svg version="1.0" xmlns="http://www.w3.org/2000/svg"
 width="840.000000pt" height="890.000000pt" viewBox="0 0 840.000000 890.000000"
 preserveAspectRatio="xMidYMid meet">

<g transform="translate(0.000000,890.000000) scale(0.100000,-0.100000)"
fill="#000000" stroke="none">
<path d="M0 8450 c0 -247 3 -449 8 -449 23 4 42 -3 42 -15 0 -24 -25 -63 -38
-58 -9 3 -12 -32 -12 -147 0 -132 2 -151 18 -160 16 -10 16 -12 1 -24 -15 -11
-15 -15 6 -39 13 -15 25 -25 28 -22 2 3 2 -7 0 -21 -7 -33 -26 -32 -41 3 -10
24 -11 25 -5 2 8 -34 23 -52 40 -45 12 4 13 -2 8 -28 -4 -17 -11 -36 -15 -41
-5 -5 -6 -16 -3 -25 4 -9 2 -13 -3 -8 -5 5 -14 27 -21 50 -8 32 -11 -855 -12
-3690 l-1 -3733 4200 0 4200 0 0 485 0 486 -22 9 -23 9 23 0 c32 1 32 48 0 54
l-23 4 23 8 c27 9 31 51 5 58 -17 4 -17 5 -1 6 16 1 17 36 18 515 0 405 -2
515 -12 519 -10 4 -10 6 0 6 10 1 12 459 12 2287 l0 2287 -50 -5 c-51 -5 -70
8 -25 17 14 3 36 7 50 10 14 3 25 12 25 21 0 14 -8 15 -47 9 -84 -14 -101 -9
-84 24 11 20 66 41 109 41 l22 0 0 875 c0 827 -1 875 -17 875 -10 0 -29 9 -43
20 -20 15 -23 21 -12 32 11 11 18 10 42 -4 l30 -17 0 134 0 135 -1330 0 c-731
0 -1330 -3 -1330 -6 0 -4 8 -12 17 -19 14 -11 15 -15 4 -28 -14 -18 -50 -15
-114 9 -20 8 -53 14 -71 14 -18 0 -39 7 -46 15 -11 13 -331 15 -2771 15
l-2759 0 0 -450z m6887 424 c34 -6 52 -18 53 -35 0 -9 -79 -29 -125 -32 -30
-1 -40 2 -43 15 -2 12 6 19 32 24 20 3 36 11 36 16 0 6 -9 8 -20 5 -11 -3 -20
-1 -20 3 0 11 22 19 37 15 6 -2 29 -7 50 -11z m-674 -36 c25 -12 37 -37 20
-39 -59 -4 -106 -11 -141 -20 -71 -16 -94 23 -33 56 32 18 118 19 154 3z
m-1163 -7 c0 -5 11 -12 25 -15 14 -4 25 -11 25 -16 0 -6 7 -10 16 -10 8 0 13
-4 9 -9 -3 -5 -24 -8 -48 -6 -77 7 -152 17 -160 22 -17 10 10 23 57 27 27 3
51 7 54 10 8 9 22 7 22 -3z m615 -61 c3 -5 1 -10 -4 -10 -6 0 -11 5 -11 10 0
6 2 10 4 10 3 0 8 -4 11 -10z m572 -16 c-3 -3 -12 -4 -19 -1 -8 3 -5 6 6 6 11
1 17 -2 13 -5z m-1227 -44 c46 -12 53 -30 13 -30 -16 0 -48 0 -73 0 -47 0
-103 17 -95 30 7 11 112 11 155 0z m-2300 -35 c0 -9 -12 -18 -30 -21 -16 -4
-30 -10 -30 -15 0 -5 -12 -4 -26 2 -15 5 -36 7 -48 4 -16 -4 -15 -2 4 7 14 7
27 15 30 19 7 9 29 15 67 17 24 2 33 -2 33 -13z m3520 1 c0 -3 -4 -8 -10 -11
-5 -3 -10 -1 -10 4 0 6 5 11 10 11 6 0 10 -2 10 -4z m-4144 -37 c3 -5 -4 -9
-15 -9 -11 0 -22 -4 -25 -9 -13 -20 -106 -22 -106 -1 0 8 49 25 63 22 4 -1 7
2 7 6 0 11 69 2 76 -9z m3654 -4 c0 -9 -6 -12 -15 -9 -8 4 -15 10 -15 15 0 5
7 9 15 9 8 0 15 -7 15 -15z m-2990 -38 c0 -19 -50 -45 -101 -53 l-44 -7 35 36
c28 30 42 37 72 37 24 0 38 -5 38 -13z m2327 -39 c27 -25 29 -38 7 -38 -15 0
-53 37 -54 53 0 14 24 7 47 -15z m-90 -20 c-3 -8 -6 -5 -6 6 -1 11 2 17 5 13
3 -3 4 -12 1 -19z m53 -8 c0 -5 -4 -10 -9 -10 -6 0 -13 5 -16 10 -3 6 1 10 9
10 9 0 16 -4 16 -10z m-2895 -10 c-3 -5 -15 -10 -26 -10 -10 0 -19 5 -19 10 0
6 12 10 26 10 14 0 23 -4 19 -10z m6096 -16 c11 -14 10 -18 -6 -30 -10 -8 -27
-14 -37 -14 -19 0 -42 35 -33 50 10 16 61 12 76 -6z m-2601 -9 c17 -20 5 -32
-15 -15 -8 7 -24 10 -35 7 -20 -5 -26 3 -13 16 12 12 50 7 63 -8z m-2174 -112
c-7 -54 -17 -63 -68 -63 -41 0 -55 21 -44 66 7 28 35 42 85 43 l34 1 -7 -47z
m1533 8 c25 -35 20 -41 -31 -35 -53 7 -74 26 -52 48 24 25 60 20 83 -13z m656
-1 c20 -38 1 -40 -30 -4 -15 18 -29 25 -40 21 -20 -8 -10 -27 15 -27 10 0 20
-6 23 -13 3 -9 -4 -12 -28 -9 -62 7 -52 62 11 62 27 0 36 -6 49 -30z m-700
-74 c26 -26 17 -36 -34 -36 -37 0 -50 4 -55 17 -15 38 55 53 89 19z m-2075 -3
c0 -42 -70 -73 -84 -37 -11 28 14 46 72 53 6 0 12 -7 12 -16z m5270 -32 c0 -5
-6 -12 -12 -15 -7 -3 5 -4 27 -1 22 3 69 7 105 10 l65 5 -37 -16 c-20 -9 -38
-24 -41 -34 -4 -14 -12 -18 -36 -15 -33 4 -52 -12 -30 -25 23 -15 -37 -23 -75
-10 -43 14 -50 50 -13 68 12 6 16 11 10 11 -19 1 -16 19 5 24 28 8 32 7 32 -2z
m-4810 -63 c-1 -7 -9 -29 -18 -48 -13 -27 -24 -36 -48 -38 -27 -3 -32 1 -37
24 -8 41 2 54 39 54 19 0 34 5 34 10 0 6 7 10 15 10 8 0 15 -6 15 -12z m-1159
-88 c16 0 29 -4 29 -10 0 -5 -9 -10 -20 -10 -11 0 -20 -4 -20 -10 0 -17 -20
-11 -45 15 -14 13 -25 31 -25 40 0 14 4 13 26 -4 15 -12 40 -21 55 -21z m613
7 c5 -21 -26 -72 -38 -60 -6 6 -7 1 -10 -37 -1 -8 2 -18 7 -21 12 -9 -1 -31
-14 -24 -5 4 -9 2 -9 -3 0 -13 -35 -21 -49 -12 -7 4 -13 17 -14 28 -1 12 -4
22 -7 22 -3 0 -6 16 -6 35 0 19 4 35 9 35 4 0 5 9 2 20 -7 21 11 29 18 8 2 -7
2 -3 0 9 -2 16 1 21 11 17 8 -3 16 -1 19 3 3 5 21 7 40 5 25 -3 37 -10 41 -25z
m5510 13 c-13 -13 -104 -22 -104 -10 0 10 29 17 80 19 22 1 31 -2 24 -9z
m-7401 -99 c13 -13 -42 -15 -119 -4 -38 5 -44 8 -29 15 26 10 134 3 148 -11z
m-288 -41 c-3 -5 -10 -10 -16 -10 -5 0 -9 5 -9 10 0 6 7 10 16 10 8 0 12 -4 9
-10z m192 4 c-3 -3 -12 -4 -19 -1 -8 3 -5 6 6 6 11 1 17 -2 13 -5z m-82 -14
c-3 -5 -15 -10 -26 -10 -10 0 -19 5 -19 10 0 6 12 10 26 10 14 0 23 -4 19 -10z
m-147 -21 c-2 -6 -8 -10 -13 -10 -5 0 -11 4 -13 10 -2 6 4 11 13 11 9 0 15 -5
13 -11z m362 1 c0 -5 -4 -10 -10 -10 -5 0 -10 5 -10 10 0 6 5 10 10 10 6 0 10
-4 10 -10z m-396 -35 c-3 -8 -15 -17 -25 -20 -15 -5 -18 -12 -13 -27 4 -13 2
-18 -4 -14 -6 3 -12 0 -15 -6 -2 -8 -8 -9 -13 -4 -5 5 -4 11 4 13 6 3 12 9 12
14 0 16 34 58 47 59 7 0 10 -7 7 -15z m66 -14 c0 -6 -5 -13 -11 -16 -6 -4 -8
-14 -4 -24 4 -11 3 -13 -4 -6 -12 12 -3 55 10 55 5 0 9 -4 9 -9z m2090 -1 c0
-5 -7 -10 -16 -10 -8 0 -12 5 -9 10 3 6 10 10 16 10 5 0 9 -4 9 -10z m-2110
-64 c0 -2 -7 -6 -15 -10 -8 -3 -15 -1 -15 4 0 6 7 10 15 10 8 0 15 -2 15 -4z
m2218 -8 c0 -7 2 -22 4 -32 5 -29 -19 -30 -26 -1 -9 35 -35 32 -43 -5 -10 -55
-35 -51 -48 7 -7 35 0 40 71 42 26 1 41 -4 42 -11z m-2545 -49 c13 -6 31 -24
41 -40 16 -28 16 -29 -5 -46 -12 -10 -33 -28 -45 -41 -19 -20 -25 -21 -42 -11
-18 11 -52 73 -52 95 0 5 7 20 16 32 17 24 49 28 87 11z m2540 -69 c14 -13 -8
-20 -63 -21 -50 -2 -89 15 -59 25 8 2 21 7 29 9 18 7 82 -3 93 -13z m-2333
-15 c0 -8 -4 -15 -10 -15 -5 0 -10 7 -10 15 0 8 5 15 10 15 6 0 10 -7 10 -15z
m148 -25 c-1 -20 -5 -27 -11 -21 -5 5 -6 18 -2 30 9 30 14 26 13 -9z m360 -7
l27 -7 -25 -6 c-27 -7 -60 4 -60 21 0 6 7 8 16 5 9 -3 28 -9 42 -13z m1705
-28 c4 -8 2 -17 -3 -20 -6 -4 -10 3 -10 14 0 25 6 27 13 6z m50 -8 c-2 -4 -5
-7 -8 -7 -3 0 -9 0 -15 0 -5 0 -10 4 -10 9 0 5 8 8 18 7 9 -2 16 -6 15 -9z
m-2119 -21 c-3 -9 -10 -16 -15 -16 -6 0 -5 9 1 21 13 24 24 20 14 -5z m-281
-77 c30 -30 35 -49 12 -49 -8 0 -15 -4 -15 -10 0 -5 -7 -10 -15 -10 -8 0 -15
5 -15 11 0 8 -4 8 -12 2 -7 -6 -23 -13 -36 -16 -18 -4 -25 0 -32 19 -14 36 4
77 30 69 11 -4 20 -3 19 2 -5 30 23 22 64 -18z m2505 26 c13 -12 11 -44 -4
-56 -13 -10 -16 -9 -21 9 -7 29 -21 28 -33 -3 -11 -29 -38 -33 -46 -7 -3 9
-10 25 -16 36 -7 13 -6 21 2 26 13 8 109 4 118 -5z m-152 -83 c-13 -12 -17 8
-10 40 l9 33 3 -33 c2 -19 1 -36 -2 -40z m-496 -7 c0 -8 0 -18 1 -22 0 -4 -4
-9 -10 -11 -6 -2 -11 8 -11 22 0 14 5 26 10 26 6 0 10 -7 10 -15z m557 -15
c33 8 87 -3 107 -21 5 -4 -9 -11 -30 -14 -58 -10 -74 -15 -74 -26 0 -5 15 -9
34 -9 53 0 64 -7 58 -38 -3 -15 -12 -32 -21 -39 -16 -12 -79 -28 -94 -24 -5 1
-7 -9 -5 -21 2 -16 11 -24 28 -26 46 -6 91 -24 87 -35 -4 -12 -36 -22 -96 -31
l-38 -5 0 62 c0 34 -6 82 -12 107 -20 71 -13 146 11 122 6 -6 24 -6 45 -2z
m-562 -80 c-3 -5 -11 -10 -16 -10 -6 0 -7 5 -4 10 3 6 11 10 16 10 6 0 7 -4 4
-10z m-795 -85 c7 -24 11 -73 8 -109 -4 -62 -6 -68 -58 -127 -43 -49 -54 -69
-53 -95 1 -33 -20 -53 -33 -32 -5 7 -2 8 7 3 11 -6 11 -5 2 5 -7 8 -8 22 -3
41 9 30 -3 50 -14 23 -12 -32 -6 -92 10 -98 13 -5 14 -9 4 -21 -6 -8 -9 -19
-6 -24 4 -5 3 -12 -2 -14 -4 -3 -12 6 -19 19 -8 18 -8 24 0 24 8 0 8 3 -1 8
-20 13 -25 137 -7 172 8 16 15 31 15 35 0 8 -60 6 -78 -4 -9 -5 -55 -11 -102
-14 -47 -3 -74 -3 -60 0 23 5 24 6 5 13 -15 5 -7 9 30 14 28 5 55 11 60 16 6
4 23 10 38 14 20 5 27 11 23 21 -3 8 -1 15 4 15 6 0 10 -4 10 -10 0 -5 5 -10
11 -10 5 0 8 4 5 9 -3 5 15 14 39 21 25 7 48 17 51 21 3 5 18 9 35 9 24 0 29
4 30 25 2 37 3 43 12 51 4 4 7 16 7 26 0 34 17 18 30 -27z m807 -1 c11 -23 10
-24 -10 -18 -29 9 -29 8 -21 28 9 22 17 20 31 -10z m2957 -30 c4 -9 4 -19 1
-22 -3 -3 -5 0 -5 6 0 7 -5 12 -11 12 -6 0 -8 -7 -5 -16 4 -9 2 -22 -4 -29 -8
-9 -6 -15 7 -20 16 -6 16 -8 -4 -16 -13 -4 -23 -13 -23 -19 0 -19 31 -23 64
-8 26 13 33 13 44 2 16 -17 64 -18 81 -1 11 10 12 8 6 -11 -6 -20 -4 -23 12
-18 23 7 125 -26 131 -42 2 -7 -5 -12 -16 -12 -12 0 -27 -6 -34 -13 -7 -7 -33
-19 -58 -27 -56 -18 -62 -24 -80 -80 -7 -25 -18 -50 -23 -57 -4 -6 -7 -27 -5
-45 3 -31 1 -33 -32 -39 -19 -4 -29 -7 -21 -8 11 -1 11 -4 1 -16 -7 -9 -19
-14 -27 -11 -17 7 -43 -55 -43 -103 0 -21 -6 -46 -14 -56 -10 -13 -11 -26 -5
-42 5 -13 8 -27 7 -31 -1 -4 3 -16 9 -27 5 -11 9 -31 8 -45 -2 -27 24 -90 37
-90 5 0 12 -8 16 -17 4 -10 23 -41 42 -70 37 -55 69 -81 79 -65 8 13 51 8 60
-7 5 -7 12 -11 17 -9 12 4 16 -44 5 -61 -7 -11 -17 -8 -52 16 -45 31 -61 32
-91 6 -9 -8 -31 -17 -50 -19 -18 -3 -46 -9 -61 -14 -20 -7 -37 -6 -55 3 -15 7
-34 12 -42 11 -8 -1 -27 -2 -42 -3 -33 -1 -58 -25 -58 -55 0 -19 -5 -23 -26
-20 -32 3 -42 16 -50 67 -9 54 -29 40 -27 -18 2 -58 27 -96 71 -109 28 -8 34
-6 53 18 23 29 45 32 73 11 27 -21 46 -19 46 5 0 25 11 25 32 1 14 -17 14 -20
-3 -35 -24 -20 -55 -21 -67 0 -10 19 -43 15 -50 -5 -3 -10 0 -12 11 -8 25 9
29 -8 7 -28 -13 -12 -27 -15 -45 -11 -14 4 -25 3 -24 -1 4 -24 -2 -43 -12 -38
-6 4 -16 0 -22 -10 -10 -13 -18 -14 -40 -6 -22 9 -29 8 -33 -4 -4 -8 -18 -15
-33 -15 -44 0 -102 -20 -108 -38 -3 -9 -17 -41 -29 -70 -13 -29 -24 -61 -24
-71 0 -31 41 -60 91 -62 50 -3 69 5 69 27 0 16 20 17 70 4 134 -34 171 -42
220 -44 44 -1 56 -5 58 -20 3 -14 -1 -17 -16 -11 -15 4 -24 0 -31 -14 -14 -25
-3 -81 16 -81 7 0 16 -6 19 -14 4 -10 14 -12 40 -6 31 7 34 6 34 -16 0 -22 3
-23 20 -14 11 6 25 8 30 5 6 -4 10 -3 9 2 -5 26 3 32 32 26 28 -5 30 -4 24 19
-8 31 16 58 50 58 31 0 41 16 15 23 -41 10 -11 54 40 59 28 2 36 -1 47 -22 11
-22 10 -26 -8 -32 -11 -4 -17 -12 -14 -18 4 -6 11 -7 17 -4 6 4 17 -1 24 -10
7 -10 18 -15 24 -11 9 5 9 10 1 18 -16 16 -14 40 3 34 8 -3 16 2 19 14 4 14
14 19 42 19 20 0 43 7 51 15 9 8 19 15 23 15 11 0 1 -49 -10 -56 -5 -3 -9 -14
-9 -25 0 -11 -9 -40 -20 -65 -11 -24 -23 -58 -27 -75 -3 -17 -21 -46 -39 -65
-19 -18 -34 -40 -34 -49 0 -9 -4 -13 -10 -10 -6 3 -10 -4 -10 -17 0 -29 -19
-59 -27 -40 -7 17 -30 15 -37 -3 -3 -8 -12 -15 -19 -15 -8 0 -20 -7 -27 -15
-7 -8 -16 -13 -20 -10 -4 3 -11 -2 -14 -11 -5 -13 -9 -14 -20 -4 -12 9 -17 7
-26 -10 -8 -15 -18 -20 -31 -17 -12 3 -23 -2 -30 -15 -6 -12 -19 -18 -32 -16
-12 1 -28 -1 -36 -6 -8 -5 -16 -3 -22 5 -7 12 -9 11 -9 -1 0 -10 -3 -11 -8 -3
-9 14 -62 5 -62 -11 0 -6 -11 -11 -25 -11 -14 0 -25 6 -25 13 0 13 -23 42 -34
42 -3 0 -6 -6 -6 -14 0 -7 -7 -19 -15 -26 -13 -11 -20 -11 -40 0 -20 11 -27
11 -41 -1 -15 -12 -18 -12 -22 1 -3 8 -20 30 -39 49 -18 19 -33 38 -33 43 0 4
-9 8 -19 8 -17 0 -36 25 -33 43 1 4 -2 7 -8 7 -5 0 -17 16 -26 35 -9 19 -20
35 -25 35 -5 0 -9 10 -9 22 0 12 -7 28 -15 37 -47 52 -55 62 -55 69 0 4 -18 8
-41 8 -22 1 -45 6 -51 12 -6 6 -16 8 -23 6 -6 -3 -18 2 -25 11 -7 8 -16 15
-21 15 -10 0 -68 61 -69 72 0 4 -13 21 -28 37 -15 17 -36 57 -47 88 -10 32
-22 62 -27 68 -4 5 -8 26 -8 48 0 21 -5 48 -11 59 -8 14 -8 23 0 31 6 6 11 21
11 34 0 13 5 23 11 23 5 0 7 5 3 11 -4 8 -9 8 -13 1 -12 -20 -31 4 -33 41 -2
20 -8 37 -14 37 -16 0 -27 66 -15 87 6 11 6 24 0 35 -10 18 2 61 20 72 5 4 13
27 17 51 3 25 15 56 25 68 10 13 21 36 24 50 4 15 12 27 17 27 6 0 5 7 -3 16
-7 8 -21 13 -30 11 -10 -3 -20 1 -23 8 -6 17 15 65 29 65 6 0 4 4 -4 9 -12 7
-12 13 -3 24 7 7 9 17 6 20 -13 13 74 115 117 137 11 6 17 15 15 19 -7 11 39
31 74 31 16 0 41 5 57 11 25 9 96 16 240 23 60 3 85 19 81 54 -4 33 -65 55
-126 46 -31 -5 -47 -2 -60 9 -9 8 -26 17 -37 19 -25 5 -22 34 8 67 28 30 58
42 75 29 11 -10 14 -8 11 10 -3 12 104 40 131 33 41 -11 77 -2 83 20 7 26 27
24 28 -3 l2 -23 4 23 c3 13 12 22 23 22 13 0 17 -5 13 -20 -5 -20 11 -28 21
-11 11 17 -5 38 -44 57 -22 11 -40 22 -40 25 0 3 12 11 27 18 26 12 42 3 43
-22 0 -5 5 -5 11 -2 6 4 8 13 5 21 -3 8 -1 14 4 14 6 0 10 11 10 25 0 18 5 25
19 25 11 0 23 4 26 10 8 13 61 -14 69 -36z m-5137 -6 c-3 -8 -6 -5 -6 6 -1 11
2 17 5 13 3 -3 4 -12 1 -19z m2143 2 c0 -5 -2 -10 -4 -10 -3 0 -8 5 -11 10 -3
6 -1 10 4 10 6 0 11 -4 11 -10z m44 -96 c29 -11 16 -24 -24 -24 -38 0 -54 13
-27 23 18 8 33 8 51 1z m584 -14 c33 0 27 -19 -14 -36 -49 -20 -38 -38 27 -44
53 -6 52 -12 -3 -24 -22 -5 -28 -12 -28 -34 0 -35 16 -52 50 -52 14 -1 39 -7
55 -14 l30 -13 -35 -7 c-19 -3 -50 -8 -69 -10 -46 -6 -60 -22 -35 -41 10 -8
25 -15 32 -15 8 0 12 -8 10 -17 -2 -12 -14 -19 -35 -21 l-31 -3 -7 65 c-4 35
-4 69 -1 74 3 5 -1 25 -9 44 -7 19 -12 44 -9 55 3 12 1 24 -5 27 -15 10 -14
49 2 65 6 6 21 10 32 7 11 -3 30 -6 43 -6z m-518 -80 c0 -5 -10 -10 -22 -10
-19 0 -20 2 -8 10 19 13 30 13 30 0z m-20 -60 c0 -5 -15 -9 -32 -9 l-33 1 30
8 c17 4 31 8 33 9 1 0 2 -3 2 -9z m40 -65 c0 -14 -4 -25 -10 -25 -8 0 -8 23
-1 48 4 12 11 -3 11 -23z m3253 -42 c26 10 63 -15 74 -50 9 -29 8 -33 -9 -33
-11 0 -29 5 -40 11 -13 7 -18 7 -14 1 9 -15 -22 -42 -49 -42 -24 0 -75 -25
-126 -61 -14 -10 -29 -16 -32 -13 -3 3 -13 -6 -23 -21 -13 -20 -19 -23 -26
-13 -8 10 -9 9 -5 -3 3 -9 -1 -25 -8 -36 -7 -11 -15 -35 -17 -54 l-3 -34 -22
22 c-46 46 -38 102 24 169 13 14 23 29 23 34 0 5 11 17 25 26 14 9 25 23 25
30 0 8 7 14 15 14 8 0 23 8 33 18 36 35 118 59 133 38 4 -5 14 -6 22 -3z
m-242 -23 c10 0 19 -4 19 -10 0 -5 -4 -10 -9 -10 -5 0 -16 -3 -24 -6 -9 -3
-16 2 -20 15 -5 21 5 40 11 22 2 -6 12 -11 23 -11z m2404 11 c-6 -5 -36 -11
-67 -13 -58 -3 -67 7 -13 15 58 8 89 7 80 -2z m-5417 -7 c21 -6 22 -7 5 -19
-24 -17 -123 -8 -123 11 0 15 74 19 118 8z m4906 -47 c18 -10 2 -13 -94 -20
-63 -4 -117 -13 -121 -19 -4 -6 -16 -7 -30 -2 -13 4 -27 7 -31 6 -5 -1 -8 4
-8 12 0 8 -6 17 -12 19 -7 3 23 6 67 6 44 1 87 6 95 12 18 12 104 3 134 -14z
m486 3 c23 -15 -2 -27 -73 -35 -56 -7 -92 4 -74 21 18 18 125 28 147 14z
m-1180 -28 c0 -4 -17 -6 -37 -4 -65 6 -70 10 -15 11 28 0 52 -3 52 -7z m-3590
-48 c6 -14 10 -40 10 -59 0 -19 4 -36 9 -40 8 -4 8 -60 0 -60 -4 0 -7 -209 -2
-220 2 -7 15 -16 27 -19 29 -7 32 -52 6 -81 -10 -11 -21 -33 -24 -49 -9 -47
-33 -76 -66 -76 -45 0 -63 25 -57 79 3 28 -2 73 -12 114 -10 38 -17 82 -17 98
1 16 -2 29 -5 29 -3 0 -6 7 -6 15 0 8 7 15 16 15 12 0 11 3 -4 14 -10 7 -16
20 -12 29 4 10 -1 17 -14 20 -24 6 -26 47 -2 47 12 0 14 3 7 10 -10 10 -2 113
11 148 3 8 26 12 65 12 56 0 61 -2 70 -26z m4840 9 c0 -5 -24 -9 -53 -10 -28
-1 -63 -5 -77 -8 -17 -4 -22 -3 -15 4 16 16 145 28 145 14z m40 -3 c0 -5 -4
-10 -9 -10 -6 0 -13 5 -16 10 -3 6 1 10 9 10 9 0 16 -4 16 -10z m-714 -45 c9
-8 26 -16 40 -16 13 -1 29 -3 34 -4 6 -1 16 -4 23 -5 6 -1 -1 -6 -18 -10 -98
-28 -121 -35 -125 -41 -3 -3 -21 -9 -41 -13 -29 -5 -39 -2 -58 18 -20 21 -21
27 -10 45 8 11 26 23 41 26 15 4 31 11 34 17 8 13 61 2 80 -17z m-4769 -7 c11
-19 21 -108 11 -108 -4 0 -8 -12 -8 -26 0 -14 4 -23 9 -20 10 6 8 -21 -3 -45
-4 -9 -6 -20 -5 -25 1 -5 -1 -17 -6 -27 -4 -9 -5 -30 -3 -46 3 -21 1 -28 -9
-24 -14 6 -18 -13 -4 -21 4 -3 6 -18 4 -33 -3 -17 -1 -23 4 -16 5 7 9 -3 9
-28 1 -39 -5 -45 -43 -40 -7 1 -13 -4 -13 -11 0 -8 -3 -9 -8 -3 -4 6 -13 10
-21 10 -20 0 -40 36 -23 42 6 3 10 9 6 14 -3 5 -1 9 4 9 5 0 9 27 9 60 0 56
-8 73 -22 50 -3 -5 -13 -10 -21 -10 -8 0 -14 5 -14 10 0 6 6 10 13 10 18 0 67
23 67 32 0 4 -5 10 -12 14 -7 4 -8 3 -4 -4 11 -17 -9 -15 -24 3 -7 8 -22 15
-34 15 -15 0 -17 3 -8 9 10 6 6 11 -17 19 -32 11 -42 32 -16 32 8 0 15 7 15
15 0 8 5 15 12 15 6 0 3 6 -7 14 -18 13 -17 14 13 21 27 5 30 9 22 25 -6 12
-6 28 1 49 10 29 14 31 64 31 32 0 57 -5 62 -12z m5383 -18 c0 -5 -5 -10 -11
-10 -5 0 -7 5 -4 10 3 6 8 10 11 10 2 0 4 -4 4 -10z m-6414 -37 c-18 -34 -78
-83 -103 -83 -13 0 -9 6 13 19 17 10 46 37 65 59 38 46 48 48 25 5z m4201 11
c-3 -3 -12 -4 -19 -1 -8 3 -5 6 6 6 11 1 17 -2 13 -5z m-67 -29 c0 -26 -15
-32 -40 -15 -13 9 -12 12 4 25 28 21 36 19 36 -10z m1023 -2 c-13 -2 -33 -2
-45 0 -13 2 -3 4 22 4 25 0 35 -2 23 -4z m-1083 -13 c0 -5 -5 -10 -11 -10 -5
0 -7 5 -4 10 3 6 8 10 11 10 2 0 4 -4 4 -10z m-4200 -5 c0 -14 -207 -81 -218
-70 -2 2 34 15 80 30 46 15 90 31 98 36 16 9 40 12 40 4z m2241 -14 l23 -18
-47 -7 c-65 -10 -92 9 -44 32 32 15 42 14 68 -7z m54 9 c3 -5 -1 -10 -10 -10
-9 0 -13 5 -10 10 3 6 8 10 10 10 2 0 7 -4 10 -10z m2123 -45 c2 -2 1 -9 -3
-15 -8 -13 -255 -12 -255 1 0 10 29 17 80 21 43 4 173 -1 178 -7z m-4408 -20
c0 -8 -4 -15 -9 -15 -5 0 -13 -10 -16 -22 -4 -13 -15 -32 -25 -43 -24 -27 -48
-80 -56 -121 -7 -40 -29 -62 -38 -39 -10 26 4 117 23 158 21 42 19 43 -56 21
-80 -23 -75 -11 6 15 39 12 81 31 93 41 28 24 78 27 78 5z m2297 -11 c-3 -3
-12 -4 -19 -1 -8 3 -5 6 6 6 11 1 17 -2 13 -5z m-1717 -24 c-20 -13 -60 -13
-60 0 0 6 17 10 38 10 27 0 33 -3 22 -10z m1730 -4 c0 -11 -19 -15 -25 -6 -3
5 1 10 9 10 9 0 16 -2 16 -4z m-46 -15 c3 -5 -1 -11 -9 -15 -15 -6 -29 7 -18
18 9 9 21 8 27 -3z m2291 -38 c20 -20 34 -42 31 -48 -2 -6 11 -22 30 -34 19
-13 34 -29 34 -35 0 -6 6 -22 13 -36 20 -38 27 -70 15 -70 -6 0 -5 -6 2 -15
17 -21 5 -125 -21 -175 -22 -43 -45 -65 -75 -74 -25 -8 -44 -45 -44 -88 0 -25
-3 -29 -20 -25 -11 3 -20 1 -20 -4 0 -5 -5 -9 -10 -9 -6 0 -10 6 -9 13 4 22
-20 67 -36 67 -8 0 -15 -5 -15 -10 0 -11 -51 -2 -60 10 -3 3 -22 16 -43 29
-43 26 -67 57 -67 86 0 21 34 50 49 41 4 -3 16 0 25 7 16 12 15 16 -13 51 -17
21 -31 44 -31 50 0 6 -25 34 -56 63 -55 50 -57 55 -69 125 -7 40 -11 75 -8 78
2 2 32 -6 66 -19 104 -40 165 -53 184 -42 16 9 16 10 -4 11 -36 0 -74 22 -68
38 3 9 0 19 -7 24 -9 5 -7 8 7 8 11 0 31 3 45 6 20 5 22 3 10 -5 -11 -8 -7 -9
20 -4 19 3 46 10 60 14 42 12 48 10 85 -28z m-3598 -39 c-3 -3 -12 -4 -19 -1
-8 3 -5 6 6 6 11 1 17 -2 13 -5z m-377 -23 c0 -14 -29 -20 -75 -16 -58 4 -57
7 5 15 30 4 58 7 63 8 4 1 7 -2 7 -7z m4120 -85 c0 -3 -4 -8 -10 -11 -5 -3
-10 -1 -10 4 0 6 5 11 10 11 6 0 10 -2 10 -4z m-2411 -19 c35 -44 15 -111 -27
-88 -36 19 -41 34 -27 69 15 34 35 41 54 19z m-1599 -48 c0 -3 -9 -14 -20 -24
-15 -14 -23 -15 -34 -6 -11 9 -17 9 -27 -2 -10 -10 -20 -11 -40 -4 l-27 11 23
18 c13 10 29 18 35 18 7 0 10 6 7 14 -3 8 -3 17 0 20 6 6 83 -35 83 -45z m481
-81 c18 -34 4 -48 -48 -48 -26 0 -55 5 -63 10 -13 9 -13 12 4 25 10 8 16 21
13 29 -13 34 75 19 94 -16z m4239 3 c0 -19 -22 -23 -38 -7 -15 15 -14 16 11
16 15 0 27 -4 27 -9z m-2690 -36 c0 -8 -9 -15 -20 -15 -20 0 -26 11 -13 23 12
13 33 7 33 -8z m32 -67 c-7 -7 -12 -8 -12 -2 0 14 12 26 19 19 2 -3 -1 -11 -7
-17z m-2067 -27 c3 -5 -4 -16 -16 -25 -25 -17 -62 -7 -67 19 -2 10 0 15 6 11
6 -3 13 -2 17 4 3 5 1 10 -5 10 -6 0 -8 4 -5 10 6 10 59 -12 70 -29z m2055 -3
c23 -52 27 -133 6 -125 -39 15 -51 -73 -14 -103 17 -13 28 -15 40 -9 14 8 24
4 44 -16 31 -31 40 -31 48 -3 5 22 6 22 20 3 20 -26 20 -75 1 -102 -22 -31
-142 -44 -162 -17 -16 21 -17 34 -3 34 6 0 22 7 36 16 29 20 21 35 -32 60 -19
9 -34 21 -34 26 0 6 -12 33 -26 62 -22 43 -25 61 -22 118 3 53 8 71 23 82 35
26 55 19 75 -26z m-1580 17 c17 -9 30 -22 30 -30 0 -32 -71 -46 -104 -22 -18
13 -18 15 -1 40 20 31 34 33 75 12z m-1300 -70 c0 -55 -33 -95 -77 -95 -42 0
-116 -65 -143 -125 -35 -78 -39 -101 -44 -245 -3 -74 -6 -138 -6 -142 0 -16
-39 -7 -44 10 -13 40 -14 112 -3 113 8 0 8 2 -1 6 -6 2 -10 8 -8 11 2 4 7 43
10 87 4 43 10 81 15 84 5 4 7 18 5 33 -1 15 4 32 12 39 7 6 11 15 8 21 -3 5 1
20 10 33 9 13 16 30 16 38 0 7 16 28 35 47 25 24 31 36 22 42 -8 5 -4 8 11 8
26 0 106 35 141 62 35 27 41 23 41 -27z m4180 4 c0 -28 -15 -23 -16 6 -1 14 2
22 7 19 5 -3 9 -14 9 -25z m-3440 17 c0 -11 -19 -15 -25 -6 -3 5 1 10 9 10 9
0 16 -2 16 -4z m2258 -66 c6 -22 12 -50 12 -62 0 -28 -27 -58 -53 -58 -18 0
-57 34 -57 50 0 9 47 30 66 30 8 0 12 5 9 11 -4 6 -13 8 -20 5 -17 -6 -9 45 8
56 19 12 21 10 35 -32z m1208 -79 c-8 -13 -36 -15 -36 -3 0 4 5 13 12 20 14
14 34 0 24 -17z m-70 4 c20 -15 11 -20 -31 -15 -25 2 -29 6 -20 19 9 15 28 14
51 -4z m-216 -45 c0 -5 -4 -10 -10 -10 -5 0 -10 5 -10 10 0 6 5 10 10 10 6 0
10 -4 10 -10z m206 -108 c13 -7 11 -11 -14 -21 -38 -16 -142 7 -142 32 0 12
131 3 156 -11z m19 -82 c3 -5 1 -10 -4 -10 -6 0 -11 5 -11 10 0 6 2 10 4 10 3
0 8 -4 11 -10z m50 0 c-3 -5 -10 -10 -16 -10 -5 0 -9 5 -9 10 0 6 7 10 16 10
8 0 12 -4 9 -10z m-4496 -311 c-14 -27 -19 -24 -19 12 0 27 2 30 15 19 11 -9
12 -17 4 -31z m41 0 c0 -10 -4 -19 -9 -19 -5 0 -8 11 -8 25 0 13 3 22 8 19 5
-3 9 -14 9 -25z m-43 -71 c-9 -5 -9 -10 1 -20 15 -15 16 -38 1 -38 -5 0 -7 5
-4 10 3 6 1 10 -4 10 -6 0 -11 19 -11 42 0 38 1 40 14 22 11 -14 11 -21 3 -26z
m7321 25 c-10 -2 -26 -2 -35 0 -10 3 -2 5 17 5 19 0 27 -2 18 -5z m-7288 -28
c0 -8 -4 -15 -10 -15 -5 0 -7 7 -4 15 4 8 8 15 10 15 2 0 4 -7 4 -15z m6667
-22 c-4 -3 -44 -7 -89 -9 -52 -1 -75 1 -63 6 23 10 161 13 152 3z m9 -35 c5
-7 2 -9 -9 -5 -9 3 -17 2 -19 -3 -4 -11 -112 -22 -135 -13 -12 5 6 11 57 19
102 16 98 15 106 2z m631 -22 c-4 -10 3 -13 25 -12 35 1 49 -19 20 -28 -41
-13 -158 -23 -179 -15 -25 9 -30 33 -10 46 6 4 41 11 77 14 36 3 67 7 69 7 2
1 1 -4 -2 -12z m-7328 -43 c0 -29 -2 -33 -8 -18 -7 18 -4 55 5 55 2 0 4 -17 3
-37z m5941 25 c0 -4 18 -8 39 -8 22 0 43 -4 46 -10 3 -5 3 -11 -2 -11 -4 -1
-17 -3 -28 -5 -80 -13 -173 -16 -179 -5 -10 16 10 39 37 44 38 6 87 3 87 -5z
m806 4 c-3 -5 -32 -9 -66 -10 -33 0 -58 3 -56 7 3 5 33 9 66 10 34 1 59 -3 56
-7z m694 -2 c0 -5 -9 -10 -21 -10 -11 0 -17 5 -14 10 3 6 13 10 21 10 8 0 14
-4 14 -10z m-642 -33 c11 4 14 3 7 -4 -16 -16 -235 -37 -248 -24 -8 8 -3 11
19 12 16 1 33 1 38 0 4 -1 25 4 45 10 20 7 48 13 63 14 15 1 31 5 35 8 4 4 11
1 15 -7 5 -9 16 -13 26 -9z m-3788 -7 c-14 -4 -38 -9 -55 -9 -24 -1 -27 -3
-15 -11 11 -8 8 -9 -12 -4 -16 3 -37 -1 -55 -10 -27 -16 -24 -16 65 -12 51 2
96 7 99 10 4 3 15 6 25 6 17 0 18 -2 4 -15 -9 -9 -58 -21 -130 -30 -63 -8
-121 -18 -130 -21 -16 -6 -41 30 -31 46 10 16 64 41 108 50 57 11 162 11 127
0z m-673 -26 c-3 -3 -12 -4 -19 -1 -8 3 -5 6 6 6 11 1 17 -2 13 -5z m3792 -20
c2 -2 -6 -4 -19 -4 -13 0 -37 -4 -54 -9 -117 -35 -152 -42 -182 -36 -43 8 -47
39 -6 54 24 9 250 5 261 -5z m-6119 -10 c0 -8 -4 -12 -10 -9 -5 3 -10 10 -10
16 0 5 5 9 10 9 6 0 10 -7 10 -16z m3640 -34 c21 0 70 -31 70 -44 0 -14 29
-31 37 -22 3 2 0 13 -6 24 -15 28 -14 39 4 39 8 0 15 -8 15 -17 0 -10 20 -36
45 -58 25 -22 45 -47 45 -56 0 -9 4 -16 9 -16 5 0 13 -9 16 -21 4 -11 11 -19
17 -17 14 5 69 -51 66 -67 -2 -7 26 -32 62 -56 36 -24 70 -54 75 -67 6 -15 16
-21 28 -18 9 2 17 1 17 -3 0 -11 -40 -32 -50 -26 -5 3 -11 1 -15 -5 -3 -6 2
-13 12 -17 10 -4 35 -23 55 -43 33 -32 35 -37 22 -54 -18 -26 -18 -55 1 -62 8
-4 15 -10 15 -16 0 -16 67 -74 81 -69 8 2 7 -3 -3 -13 -10 -9 -25 -16 -35 -14
-10 2 -18 -3 -18 -12 0 -10 -8 -14 -23 -12 -12 2 -22 -1 -22 -7 0 -13 45 -25
65 -18 8 4 17 2 20 -3 9 -14 -41 -34 -62 -25 -10 4 -29 9 -43 11 -13 2 -29 9
-35 16 -6 7 -28 23 -50 34 -22 12 -40 28 -40 35 0 7 -14 16 -31 21 -18 4 -39
19 -48 32 -15 24 -109 133 -240 280 -33 38 -74 89 -91 115 -16 25 -32 48 -35
51 -14 13 -40 70 -40 87 0 10 -5 24 -12 31 -9 9 -9 15 1 25 11 10 13 10 7 0
-4 -7 -5 -13 -2 -13 3 0 13 14 22 31 9 18 19 27 23 21 10 -17 58 -25 78 -13
15 9 12 10 -18 11 -28 0 -38 5 -47 24 -14 32 6 42 30 15 9 -10 21 -19 28 -19z
m-1296 7 c-17 -10 -161 -21 -152 -12 9 10 134 31 152 27 17 -5 18 -5 0 -15z
m1376 13 c0 -5 -2 -10 -4 -10 -3 0 -8 5 -11 10 -3 6 -1 10 4 10 6 0 11 -4 11
-10z m-450 -70 c-26 -181 14 -394 115 -605 49 -101 98 -248 116 -345 9 -43 25
-84 51 -124 59 -92 49 -118 -16 -40 -30 36 -43 64 -61 137 -29 117 -53 176
-125 312 -32 61 -75 162 -96 225 -32 101 -38 130 -42 237 -5 134 5 197 40 244
12 16 23 28 24 26 2 -2 -1 -32 -6 -67z m-3273 28 c-3 -7 -5 -2 -5 12 0 14 2
19 5 13 2 -7 2 -19 0 -25z m3000 -4 c-3 -3 -12 -4 -19 -1 -8 3 -5 6 6 6 11 1
17 -2 13 -5z m-574 -15 c20 -5 37 -15 37 -22 0 -17 -58 -41 -73 -30 -31 23
-90 34 -142 28 -63 -8 -79 10 -17 20 20 4 44 8 52 10 34 7 108 4 143 -6z
m-786 -5 c-3 -3 -12 -4 -19 -1 -8 3 -5 6 6 6 11 1 17 -2 13 -5z m-1630 -36
c-3 -8 -6 -5 -6 6 -1 11 2 17 5 13 3 -3 4 -12 1 -19z m3154 -45 c-40 -142 25
-400 158 -628 86 -147 106 -189 141 -302 22 -71 41 -112 61 -134 97 -104 125
-140 151 -198 44 -99 30 -106 -35 -16 -31 44 -81 107 -110 141 -36 40 -65 87
-86 140 -18 43 -78 159 -133 257 -164 292 -212 432 -206 611 3 107 5 115 32
151 33 43 43 35 27 -22z m4279 45 c0 -11 -12 -10 -30 2 -12 7 -10 9 8 7 12 0
22 -5 22 -9z m-6303 -12 c-3 -8 2 -16 14 -19 13 -3 19 0 19 10 0 13 3 13 15 3
8 -7 22 -10 30 -6 9 3 13 2 10 -4 -4 -6 6 -7 25 -4 20 5 30 3 30 -6 0 -7 -7
-10 -15 -6 -13 5 -19 -5 -16 -26 0 -3 -13 -9 -29 -13 -17 -4 -30 -10 -30 -14
0 -5 -25 -11 -56 -14 -31 -3 -62 -11 -67 -16 -22 -22 -127 -1 -127 26 0 16 46
47 59 39 5 -3 11 -1 13 6 2 6 20 17 39 24 l34 12 -30 3 -30 2 35 7 c60 13 83
11 77 -4z m708 -5 l30 -9 -32 -12 c-18 -7 -33 -16 -33 -21 0 -30 -206 -63
-235 -39 -25 21 -17 28 23 23 29 -4 41 0 56 16 l19 21 -51 0 c-29 0 -52 4 -52
10 0 27 194 35 275 11z m536 -6 c-2 -11 -27 -19 -92 -28 -35 -5 -46 -3 -46 8
0 15 58 29 87 20 10 -3 21 -1 25 5 8 13 27 9 26 -5z m5025 -15 c3 0 14 5 25
10 14 8 19 7 19 -2 0 -9 3 -9 12 0 18 18 24 15 38 -18 17 -40 3 -56 -57 -64
-62 -8 -72 2 -59 60 6 26 12 39 14 30 2 -9 6 -16 8 -16z m-4406 17 c-3 -3 -36
-8 -75 -11 -38 -4 -65 -3 -58 1 12 9 141 18 133 10z m-2982 -38 c-3 -8 -7 -3
-11 10 -4 17 -3 21 5 13 5 -5 8 -16 6 -23z m3897 1 c3 -5 -1 -10 -9 -10 -9 0
-16 5 -16 10 0 6 4 10 9 10 6 0 13 -4 16 -10z m2891 -12 c-1 -16 4 -22 14 -19
59 13 70 12 70 -8 0 -21 -32 -61 -49 -61 -16 0 -61 41 -61 56 0 15 17 54 24
54 1 0 2 -10 2 -22z m-2820 -23 c19 -14 19 -14 -2 -15 -12 0 -27 7 -34 15 -17
20 9 21 36 0z m2228 -30 c14 -11 16 -18 8 -27 -5 -7 -12 -24 -14 -38 -4 -36
-41 -38 -73 -6 -27 27 -27 61 -1 78 18 12 60 8 80 -7z m-2116 -18 c25 -9 35
-9 40 0 12 19 65 1 77 -25 11 -25 25 -29 25 -7 0 9 10 15 26 15 14 0 23 -4 19
-10 -4 -6 5 -10 20 -10 33 0 68 -18 60 -31 -10 -15 -25 -10 -25 8 0 22 -13 7
-15 -17 -1 -11 4 -25 12 -31 9 -8 13 -8 13 0 0 6 4 11 9 11 5 0 9 -17 8 -37
-1 -23 3 -38 10 -38 21 0 25 -13 10 -42 -26 -49 -64 -84 -84 -75 -38 15 -83
47 -83 58 0 7 -16 18 -36 24 -25 9 -34 16 -30 27 10 24 -54 102 -88 110 -16 3
-31 14 -33 24 -3 10 -14 19 -25 21 -18 3 -18 4 -1 25 19 23 23 23 91 0z
m-4067 -10 c-1 -12 -15 -9 -19 4 -3 6 1 10 8 8 6 -3 11 -8 11 -12z m7389 3
c13 -8 13 -10 -2 -10 -9 0 -20 5 -23 10 -8 13 5 13 25 0z m-666 -41 c8 -12 19
-18 25 -14 6 3 11 1 11 -4 0 -6 6 -11 14 -11 8 0 28 -11 43 -25 28 -24 28 -24
5 -25 -23 0 -105 41 -131 65 -13 13 -8 35 9 35 5 0 16 -9 24 -21z m62 -1 l19
-21 -27 18 c-29 18 -34 25 -20 25 5 0 17 -10 28 -22z m628 -23 c8 -8 22 -15
32 -15 10 0 15 -3 11 -6 -12 -12 -77 6 -77 21 0 19 15 19 34 0z m-1314 -35
c41 -29 63 -58 57 -75 -9 -23 -34 -18 -83 15 -51 36 -68 62 -52 78 14 14 42 7
78 -18z m-6088 -10 c3 -16 1 -30 -4 -30 -4 0 -8 14 -8 30 0 17 2 30 4 30 2 0
6 -13 8 -30z m1846 -37 c4 -26 -33 -63 -65 -63 -12 0 -27 9 -33 21 -10 17 -7
24 15 45 34 31 78 30 83 -3z m-1838 -19 c0 -8 -5 -12 -10 -9 -6 4 -8 11 -5 16
9 14 15 11 15 -7z m1230 -32 c0 -15 -7 -26 -20 -29 -11 -3 -20 -9 -20 -14 0
-13 -44 -11 -58 3 -13 13 -16 50 -6 61 4 3 28 5 55 4 44 -2 49 -4 49 -25z
m6248 -27 c6 -5 -100 -27 -186 -39 -46 -7 -85 -9 -88 -4 -3 4 3 8 13 8 10 0
61 11 113 24 80 20 132 24 148 11z m-7468 -35 c0 -5 -4 -10 -10 -10 -5 0 -10
5 -10 10 0 6 5 10 10 10 6 0 10 -4 10 -10z m6786 -3 c7 -7 -72 -31 -175 -52
-51 -11 -78 -12 -85 -5 -7 7 -3 10 12 10 33 0 91 31 85 46 -4 10 13 12 76 10
45 -2 84 -6 87 -9z m-187 -1 c-2 -2 -20 -6 -39 -10 -25 -4 -31 -3 -20 4 14 9
69 15 59 6z m-571 -34 c29 -10 10 -31 -35 -37 -27 -4 -64 -10 -83 -14 -70 -15
-104 24 -42 48 26 10 134 12 160 3z m1310 1 c-10 -2 -26 -2 -35 0 -10 3 -2 5
17 5 19 0 27 -2 18 -5z m118 -15 l33 -23 -67 -12 c-78 -13 -208 -16 -177 -3
11 4 40 14 65 21 25 7 50 17 57 22 7 5 17 6 22 3 5 -4 12 -2 16 4 9 14 15 13
51 -12z m-692 -34 c-19 -15 -19 -15 2 -11 12 3 28 1 35 -4 22 -13 -37 -30
-141 -39 -55 -5 -99 -4 -104 1 -6 6 -2 9 10 10 10 0 26 2 34 5 8 2 40 9 70 15
81 16 75 22 -17 17 -46 -2 -83 0 -83 4 0 9 42 15 134 17 74 1 78 0 60 -15z
m-6754 -15 c0 -6 -4 -7 -10 -4 -5 3 -10 11 -10 16 0 6 5 7 10 4 6 -3 10 -11
10 -16z m1178 -29 c9 -26 8 -32 -11 -45 -25 -18 -67 -20 -67 -4 0 7 9 20 20
29 13 11 17 21 10 25 -18 11 -11 25 14 25 18 0 27 -8 34 -30z m4921 15 c22
-23 -90 -54 -197 -55 -29 0 -33 3 -30 23 5 33 58 48 147 42 41 -3 77 -7 80
-10z m-4984 -15 c3 -5 1 -10 -4 -10 -6 0 -11 5 -11 10 0 6 2 10 4 10 3 0 8 -4
11 -10z m870 -122 c25 -29 27 -37 23 -102 -4 -59 -12 -87 -49 -161 -32 -65
-52 -94 -71 -103 -31 -14 -37 -37 -13 -46 8 -3 15 -16 15 -30 0 -34 -34 -108
-59 -128 -18 -16 -26 -38 -18 -53 1 -3 -17 -14 -40 -26 -38 -19 -41 -23 -32
-43 9 -19 6 -28 -15 -51 -14 -15 -26 -31 -26 -36 0 -13 24 -17 43 -7 22 11 23
-18 2 -46 -8 -11 -15 -29 -15 -40 0 -43 -21 -95 -40 -101 -13 -4 -20 -15 -20
-30 0 -16 -9 -27 -30 -37 -16 -7 -30 -20 -31 -28 0 -9 -4 -5 -9 8 -5 12 -14
22 -19 22 -13 0 -6 97 8 114 6 7 7 22 4 35 -6 25 13 97 33 121 7 8 15 51 19
95 4 44 14 89 21 100 8 11 14 27 14 36 0 9 7 22 15 29 9 7 15 29 15 55 0 24 6
48 14 54 23 19 58 111 52 136 -4 14 4 41 20 71 15 27 33 78 40 113 19 90 35
111 83 111 32 0 44 -6 66 -32z m2195 2 c0 -5 -5 -10 -11 -10 -5 0 -7 5 -4 10
3 6 8 10 11 10 2 0 4 -4 4 -10z m865 -103 c4 -17 18 -70 32 -117 13 -47 28
-110 33 -140 4 -30 24 -95 43 -145 39 -100 113 -342 129 -420 6 -27 24 -117
41 -200 36 -177 39 -317 12 -530 -10 -71 -17 -137 -17 -147 1 -22 -43 -32 -71
-16 -21 13 -21 13 11 16 37 4 40 12 12 37 -25 23 -26 57 -4 275 l17 165 -32
152 c-17 84 -31 170 -31 192 0 21 -14 83 -31 137 -16 55 -39 137 -50 184 -11
47 -26 103 -34 125 -7 22 -16 87 -18 145 -4 73 -13 129 -30 185 -33 105 -42
149 -29 141 6 -3 14 -21 17 -39z m-3456 -37 c32 -17 44 -65 38 -146 -8 -90
-25 -166 -42 -179 -6 -5 -17 -20 -24 -33 -7 -13 -24 -28 -39 -33 l-27 -11 27
-23 28 -24 -14 -62 c-8 -34 -24 -71 -35 -83 -12 -12 -21 -29 -21 -37 -1 -11
-3 -11 -10 2 -6 11 -18 15 -36 11 -23 -4 -26 -2 -22 16 3 11 -3 33 -13 49 -10
15 -19 38 -19 51 0 12 -5 31 -12 41 -10 16 -8 29 10 68 11 26 24 68 28 93 3
25 12 54 19 65 7 12 18 63 25 115 9 64 19 99 32 112 20 20 77 24 107 8z m3457
-121 c9 -32 17 -106 18 -179 3 -132 24 -250 71 -394 14 -43 25 -93 25 -110 0
-17 14 -98 32 -179 31 -144 31 -151 20 -245 -7 -53 -15 -141 -19 -194 -6 -91
-8 -98 -27 -98 -42 0 -48 13 -47 94 1 42 5 106 11 143 14 96 12 217 -5 293 -8
36 -14 83 -15 105 0 22 -9 78 -21 125 -36 149 -50 275 -43 400 4 85 2 136 -10
195 -24 122 -19 146 10 44z m-3787 -295 c48 -34 64 -122 38 -214 -14 -51 -66
-150 -79 -150 -13 0 -9 -22 7 -34 13 -10 13 -19 1 -76 -7 -36 -22 -81 -32
-100 -22 -43 -19 -69 9 -92 12 -10 18 -18 13 -18 -5 0 -2 -7 5 -17 18 -21 19
-131 2 -138 -7 -2 -13 -12 -12 -22 0 -15 2 -15 16 5 8 12 23 22 32 22 24 0 71
132 71 198 0 16 4 32 9 38 5 5 14 26 21 47 9 30 9 41 -1 53 -9 12 -9 19 1 38
6 13 9 33 6 44 -9 26 25 51 59 44 28 -5 27 -4 25 -82 -2 -68 -16 -134 -29
-138 -5 -2 -8 -9 -5 -17 3 -7 -2 -27 -11 -44 -14 -28 -14 -31 0 -31 9 0 21
-13 26 -29 10 -28 11 -28 40 -14 26 13 29 19 29 66 0 61 6 72 42 80 40 10 56
-1 63 -44 4 -22 11 -36 17 -33 5 4 7 21 3 40 -5 31 -4 34 18 34 13 0 34 -11
47 -25 13 -14 29 -25 35 -25 7 0 22 25 35 55 13 30 27 55 31 55 4 0 45 25 90
55 45 30 88 55 95 55 7 0 35 14 61 30 79 50 104 43 223 -60 83 -71 108 -98
115 -121 4 -11 11 -19 16 -19 5 0 17 -15 26 -34 15 -32 15 -36 -1 -51 -23 -24
-21 -65 4 -65 11 0 32 -13 47 -30 21 -24 29 -27 40 -18 8 6 33 11 56 11 78 0
146 -55 133 -108 -8 -31 -283 -300 -307 -300 -4 0 -22 -20 -40 -45 -18 -25
-36 -47 -40 -50 -4 -3 -19 -27 -33 -54 -14 -27 -50 -71 -79 -97 -28 -26 -66
-61 -82 -76 -17 -15 -43 -46 -57 -68 -28 -41 -44 -58 -114 -122 -64 -60 -105
-93 -114 -93 -5 0 -10 -4 -12 -8 -5 -12 -148 -79 -203 -95 -27 -8 -68 -25 -90
-37 -73 -41 -111 -50 -167 -40 -35 7 -55 7 -62 0 -5 -5 -22 -10 -37 -10 -15 0
-39 -7 -55 -15 -48 -24 -168 -18 -236 12 -32 14 -58 30 -58 36 0 5 -9 7 -19 4
-13 -3 -18 0 -15 7 3 7 -4 21 -16 31 -11 10 -20 22 -20 27 0 6 -9 21 -19 34
-19 24 -19 25 4 114 2 8 4 20 4 26 1 7 8 14 16 17 11 5 12 1 5 -19 -6 -16 -6
-23 0 -19 5 3 12 -10 16 -30 7 -38 29 -47 39 -16 6 19 -10 59 -30 73 -27 19
-5 228 26 252 9 7 14 31 14 61 1 28 9 65 18 84 26 52 55 188 56 259 0 84 18
168 45 211 22 36 33 122 19 145 -8 11 -15 97 -14 154 1 18 14 65 30 105 47
116 71 215 76 316 3 52 10 100 16 108 16 18 70 16 98 -3z m2434 -171 c25 -38
57 -93 72 -123 15 -30 51 -89 79 -130 62 -89 120 -189 170 -287 19 -40 55
-103 79 -140 24 -37 63 -104 87 -148 51 -96 137 -241 162 -274 25 -33 23 -49
-8 -57 -20 -5 -33 0 -60 27 -44 42 -110 148 -160 254 -20 44 -73 144 -116 221
-43 78 -78 144 -78 147 0 3 -30 61 -66 129 -37 68 -84 164 -105 214 -21 50
-47 106 -58 125 -23 38 -53 109 -47 109 2 0 24 -30 49 -67z m-2266 -115 c-3
-7 -5 -2 -5 12 0 14 2 19 5 13 2 -7 2 -19 0 -25z m2655 -452 c18 -32 59 -88
92 -124 64 -73 149 -181 211 -271 22 -32 55 -75 73 -97 30 -36 31 -40 15 -51
-40 -30 -57 -17 -125 90 -35 56 -96 151 -134 211 -38 60 -77 122 -86 138 -9
16 -23 37 -31 46 -8 9 -29 44 -46 77 -18 33 -37 64 -42 70 -5 5 -9 14 -9 20 0
16 45 -44 82 -109z m-4605 -18 c-3 -7 -5 -2 -5 12 0 14 2 19 5 13 2 -7 2 -19
0 -25z m17 -40 c-3 -5 4 -16 15 -25 l22 -15 -22 -19 c-12 -10 -29 -19 -37 -19
-12 0 -12 -3 -2 -15 9 -11 16 -12 25 -5 17 14 40 -37 25 -55 -6 -7 -7 -21 -3
-30 4 -13 3 -16 -5 -11 -8 5 -12 0 -12 -13 0 -11 5 -23 10 -26 6 -3 10 1 10 9
0 9 5 16 10 16 6 0 10 -9 10 -20 0 -33 -40 -26 -53 10 -6 17 -18 30 -25 30 -8
0 -12 6 -8 15 3 9 0 15 -8 15 -15 0 -17 80 -1 80 5 0 2 5 -8 11 -26 15 -10 30
19 17 19 -9 27 -9 37 1 10 11 8 12 -10 7 -26 -8 -36 5 -28 37 5 18 12 23 26
20 10 -3 16 -10 13 -15z m45 -293 c17 5 21 2 21 -15 0 -18 -3 -19 -21 -10 -18
10 -21 8 -27 -12 -5 -22 -6 -22 -13 6 -9 32 -1 56 11 36 4 -7 16 -9 29 -5z
m7322 5 c34 0 39 -3 39 -23 0 -22 -7 -25 -87 -40 -125 -24 -142 -23 -139 8 2
14 7 30 12 35 11 11 104 29 122 24 8 -2 31 -4 53 -4z m637 -6 c4 -6 14 -13 22
-16 8 -3 -9 -13 -38 -22 -54 -18 -182 -20 -199 -3 -11 12 11 41 38 49 38 11
170 5 177 -8z m-7898 -48 c0 -7 -6 -21 -14 -32 -11 -14 -18 -16 -26 -7 -9 8
-7 13 10 18 15 5 20 13 17 26 -3 10 -1 17 4 13 5 -3 9 -11 9 -18z m5459 -10
c15 -8 40 -12 63 -8 30 4 38 1 38 -11 0 -23 -34 -30 -79 -16 -42 13 -87 49
-60 49 8 -1 25 -7 38 -14z m2438 -20 c-14 -11 -27 -12 -54 -4 -20 5 -57 7 -82
3 -33 -4 -42 -3 -31 4 8 6 53 11 100 11 74 -1 83 -2 67 -14z m-622 -10 c8 -7
11 -17 7 -20 -3 -4 0 -11 7 -15 25 -16 -30 -34 -114 -38 -58 -3 -76 -1 -65 6
8 6 25 11 38 11 13 0 33 5 44 11 30 16 5 29 -56 29 -71 0 -51 9 40 19 44 5 80
9 82 10 2 0 10 -5 17 -13z m-1849 -17 c10 -16 -79 -96 -145 -131 -59 -31 -75
-30 -45 4 19 21 19 21 -1 14 -92 -36 -333 -80 -391 -71 -26 3 -42 10 -38 14 5
4 66 25 137 45 70 21 194 60 275 87 150 49 195 58 208 38z m2474 -7 c-14 -2
-29 -8 -34 -13 -13 -12 -117 -11 -136 1 -11 7 5 10 53 10 37 0 67 4 67 8 0 4
17 6 38 3 30 -4 32 -6 12 -9z m-2430 -12 c0 -5 -2 -10 -4 -10 -3 0 -8 5 -11
10 -3 6 -1 10 4 10 6 0 11 -4 11 -10z m-10 -35 c0 -8 -7 -15 -16 -15 -14 0
-14 3 -4 15 7 8 14 15 16 15 2 0 4 -7 4 -15z m321 -33 c-7 -2 -18 1 -23 6 -8
8 -4 9 13 5 13 -4 18 -8 10 -11z m-150 -2 c30 -6 82 -24 116 -41 158 -77 242
-241 209 -408 -8 -40 -7 -43 12 -37 18 6 36 7 127 4 48 -1 89 -30 97 -69 3
-19 9 -44 13 -56 5 -16 2 -23 -14 -28 -26 -8 -28 -25 -2 -25 21 0 48 -26 32
-32 -7 -2 -6 -18 2 -47 11 -33 21 -46 45 -57 33 -14 41 -29 20 -37 -8 -3 -6
-6 5 -6 9 -1 17 4 17 9 0 14 25 -1 75 -45 22 -19 43 -35 47 -35 4 0 5 -6 2
-14 -3 -9 3 -17 15 -21 11 -3 20 -11 18 -18 -1 -6 8 -13 21 -15 12 -2 20 -8
17 -13 -4 -5 8 -9 24 -9 17 0 31 -4 31 -10 0 -5 9 -10 20 -10 13 0 24 -10 30
-25 5 -14 14 -25 20 -25 5 0 9 -3 8 -7 -1 -5 10 -21 25 -37 20 -22 25 -35 20
-55 -8 -37 -12 -41 -34 -41 -10 0 -19 -5 -19 -11 0 -8 -4 -8 -12 -1 -7 5 -24
12 -38 14 -27 3 -41 45 -20 58 19 12 -27 68 -62 75 -15 4 -28 11 -28 16 0 5
-7 9 -15 9 -8 0 -12 6 -9 13 2 7 -7 19 -21 27 -14 7 -23 15 -20 18 5 6 -49 36
-85 47 -35 11 -80 46 -80 63 0 20 -153 10 -189 -12 -7 -5 -42 -11 -77 -14 -48
-3 -67 -9 -74 -22 -6 -12 -27 -20 -60 -25 -44 -6 -52 -11 -66 -40 -20 -44
-107 -125 -133 -125 -39 0 -70 55 -57 103 6 24 64 69 78 61 4 -3 8 -18 8 -35
0 -18 5 -29 14 -29 14 0 23 31 32 105 5 43 30 71 73 82 14 3 42 17 61 30 19
12 43 23 53 23 10 0 35 13 55 29 53 41 77 46 102 21 12 -12 20 -15 18 -8 -2 7
7 27 19 44 l22 30 -37 -3 c-32 -2 -62 -8 -97 -19 -5 -2 -30 -8 -55 -13 -57
-12 -129 -38 -147 -52 -7 -6 -13 -19 -13 -28 0 -10 -16 -36 -36 -59 -29 -34
-42 -42 -70 -42 -40 0 -85 40 -79 69 3 17 -7 19 -99 23 -88 4 -112 9 -169 36
-89 41 -159 109 -200 191 -29 59 -32 74 -32 156 0 80 3 97 31 155 88 182 307
289 515 250z m1674 -48 c18 -12 55 -69 55 -85 0 -8 -12 -17 -27 -20 -36 -7
-52 16 -53 71 0 42 5 49 25 34z m597 -77 c24 -27 22 -40 -4 -42 -31 -3 -48 15
-48 48 0 23 3 27 18 22 9 -4 25 -16 34 -28z m53 -155 c8 -13 -5 -13 -25 0 -13
8 -13 10 2 10 9 0 20 -4 23 -10z m-547 -13 c6 -5 12 -18 12 -28 0 -32 -54 -25
-80 11 l-21 29 38 -1 c21 0 44 -5 51 -11z m-928 -437 c0 -5 -4 -10 -10 -10 -5
0 -10 5 -10 10 0 6 5 10 10 10 6 0 10 -4 10 -10z m92 -58 c7 -10 22 -22 33
-27 18 -7 19 -8 2 -12 -24 -6 -50 4 -42 17 3 6 -1 13 -9 16 -9 3 -16 10 -16
15 0 15 18 10 32 -9z m-1177 -33 c16 -16 -50 -10 -71 7 -18 14 -16 15 21 9 22
-4 44 -11 50 -16z m1344 -196 c39 -25 52 -43 32 -43 -5 0 -12 -18 -16 -40 -6
-35 -10 -40 -34 -40 -25 0 -26 3 -28 48 0 26 -4 59 -8 75 -9 34 2 34 54 0z
m-583 -104 c6 -26 18 -60 26 -76 19 -38 13 -53 -21 -53 -15 0 -49 -7 -75 -16
-33 -12 -66 -15 -108 -11 -41 4 -68 1 -86 -9 -15 -8 -57 -14 -97 -14 -45 0
-77 -6 -89 -15 -10 -8 -22 -12 -27 -10 -4 3 -10 1 -13 -4 -3 -4 -31 -21 -61
-36 -69 -34 -100 -28 -121 20 -23 57 -18 80 22 104 55 33 73 25 75 -32 0 -18
4 -15 17 13 24 51 77 105 120 123 20 8 91 23 157 32 66 10 140 21 165 25 25 5
58 7 74 7 27 -2 31 -7 42 -48z m233 11 c7 0 9 5 6 11 -4 6 2 5 13 -2 14 -9 18
-17 12 -25 -6 -6 -7 -14 -3 -17 10 -11 -21 -8 -56 4 -26 9 -31 16 -31 42 l0
30 23 -21 c13 -12 29 -22 36 -22z m78 -26 c-3 -3 -12 -4 -19 -1 -8 3 -5 6 6 6
11 1 17 -2 13 -5z m73 -40 c0 -11 -7 -13 -27 -8 -55 13 -61 32 -8 26 22 -3 35
-10 35 -18z m957 -120 c3 -8 -26 -12 -94 -13 -57 0 -99 -5 -101 -11 -2 -5 -9
-10 -15 -10 -7 0 -5 6 4 15 27 27 198 42 206 19z m-825 -14 c9 0 28 -10 43
-22 23 -21 24 -26 14 -61 -9 -34 -12 -37 -27 -25 -14 11 -15 11 -9 -6 7 -16 3
-18 -30 -12 -25 4 -33 3 -24 -2 11 -8 9 -14 -9 -32 l-22 -22 -28 30 c-29 32
-43 69 -30 77 5 3 12 1 15 -5 5 -8 11 -8 20 0 10 9 20 7 40 -6 26 -17 27 -17
24 1 -2 11 -13 22 -24 25 -20 5 -29 32 -20 59 4 8 13 11 28 7 12 -3 30 -6 39
-6z m878 -47 c0 -14 -131 -28 -196 -20 -25 2 -51 10 -57 17 -9 10 -9 12 3 8 8
-3 35 -2 60 1 78 10 190 7 190 -6z m-1691 -10 c6 -10 11 -14 11 -9 0 5 8 1 19
-8 17 -16 19 -16 23 2 4 13 18 21 48 26 44 7 192 -10 222 -25 11 -6 19 -5 24
2 9 16 87 6 119 -15 20 -13 25 -24 25 -59 -1 -51 -30 -92 -60 -84 -11 3 -20 1
-20 -4 0 -23 -40 -28 -126 -14 -121 18 -182 41 -221 83 -12 13 -24 23 -27 23
-21 -3 -26 1 -21 12 4 6 -1 3 -9 -7 -18 -22 -21 -40 -6 -31 6 3 10 -3 10 -14
0 -17 -6 -21 -31 -21 -41 0 -66 15 -84 51 -20 38 -12 62 28 88 39 25 63 26 76
4z m1579 -62 c16 -10 -31 -21 -87 -21 l-36 1 25 14 c28 16 78 19 98 6z m10
-68 c-15 -2 -42 -2 -60 0 -18 2 -6 4 27 4 33 0 48 -2 33 -4z m-1138 -209 c8
-19 15 -24 30 -19 14 4 20 2 20 -8 0 -8 11 -25 25 -38 13 -13 25 -30 25 -37 0
-7 5 -10 10 -7 6 3 10 0 10 -8 0 -8 7 -20 15 -27 21 -18 8 -31 -23 -24 l-27 7
23 -25 23 -26 -43 -5 c-24 -3 -72 -4 -108 -4 -59 2 -65 4 -71 27 -11 41 -10
58 7 75 9 9 14 18 11 22 -3 3 2 14 12 24 10 11 23 37 30 59 14 47 18 49 31 14z
m1179 -28 c12 -13 24 -41 27 -62 4 -27 3 -35 -4 -25 -5 7 -16 11 -23 9 -8 -3
-26 13 -42 34 -22 32 -26 42 -16 54 16 20 32 17 58 -10z m-1329 -97 c0 -5 -4
-9 -10 -9 -5 0 -10 7 -10 16 0 8 5 12 10 9 6 -3 10 -10 10 -16z m1365 -229
c-28 -12 -67 -12 -60 0 3 6 23 10 43 9 30 0 33 -2 17 -9z m5 -64 c8 -2 -9 -4
-37 -5 -29 0 -53 3 -53 7 0 7 52 6 90 -2z"/>
<path d="M5043 7168 c2 -7 10 -13 17 -13 7 0 15 6 18 13 2 7 -5 12 -18 12 -13
0 -20 -5 -17 -12z"/>
<path d="M4814 6786 c-3 -9 -3 -23 0 -32 10 -26 -4 -35 -29 -18 -26 17 -97 12
-122 -8 -7 -5 -22 -11 -35 -13 -85 -13 -167 -38 -200 -62 -22 -16 -51 -35 -66
-44 -20 -12 -27 -24 -26 -45 0 -16 -4 -32 -10 -36 -14 -10 0 -10 46 1 22 5 36
5 32 0 -3 -5 2 -9 10 -9 20 0 29 17 14 26 -24 15 28 23 160 23 154 1 165 -8
41 -35 -9 -2 -29 -9 -45 -15 -16 -7 -32 -12 -36 -11 -12 3 -9 -8 7 -24 13 -13
25 -13 102 1 154 27 143 27 143 4 0 -16 4 -19 18 -14 9 4 26 8 36 11 11 2 29
13 42 25 12 11 30 20 40 19 34 -4 44 0 44 16 0 9 10 24 23 34 l22 18 -30 13
c-16 7 -33 13 -37 13 -4 1 -14 10 -22 21 -15 20 -15 20 -16 0 0 -30 -66 -84
-93 -77 -21 6 -21 7 3 10 38 6 42 15 26 59 -16 45 -8 56 33 48 13 -2 18 1 15
10 -3 7 -1 16 5 20 16 9 14 25 -3 25 -8 0 -16 7 -20 15 -3 8 -11 15 -17 15 -7
0 -21 7 -31 16 -16 16 -18 16 -24 0z m-95 -135 c19 -12 4 -31 -25 -31 -22 0
-23 3 -14 20 12 22 18 24 39 11z"/>
<path d="M5080 6659 c0 -5 5 -7 10 -4 6 3 10 8 10 11 0 2 -4 4 -10 4 -5 0 -10
-5 -10 -11z"/>
<path d="M4923 6293 c-13 -2 -23 -9 -23 -14 0 -5 -7 -9 -15 -9 -8 0 -15 -4
-15 -9 0 -5 17 -5 42 0 47 11 58 16 58 30 0 9 -8 10 -47 2z"/>
<path d="M5295 5270 c3 -5 8 -10 11 -10 2 0 4 5 4 10 0 6 -5 10 -11 10 -5 0
-7 -4 -4 -10z"/>
<path d="M5105 5242 c-5 -4 -16 -17 -23 -29 -10 -19 -10 -23 2 -23 7 0 19 7
26 15 14 16 10 48 -5 37z"/>
<path d="M2275 6509 c-10 -15 3 -25 16 -12 7 7 7 13 1 17 -6 3 -14 1 -17 -5z"/>
<path d="M2250 6390 c0 -5 5 -10 10 -10 6 0 10 5 10 10 0 6 -4 10 -10 10 -5 0
-10 -4 -10 -10z"/>
<path d="M710 5450 c0 -5 5 -10 10 -10 6 0 10 5 10 10 0 6 -4 10 -10 10 -5 0
-10 -4 -10 -10z"/>
<path d="M4291 4954 c0 -11 3 -14 6 -6 3 7 2 16 -1 19 -3 4 -6 -2 -5 -13z"/>
<path d="M1955 4900 c3 -5 8 -10 11 -10 2 0 4 5 4 10 0 6 -5 10 -11 10 -5 0
-7 -4 -4 -10z"/>
<path d="M4820 4770 c0 -5 7 -10 15 -10 8 0 15 5 15 10 0 6 -7 10 -15 10 -8 0
-15 -4 -15 -10z"/>
<path d="M4880 4769 c0 -5 5 -7 10 -4 6 3 10 8 10 11 0 2 -4 4 -10 4 -5 0 -10
-5 -10 -11z"/>
<path d="M2854 3144 c3 -26 1 -50 -4 -57 -6 -7 -16 -20 -23 -31 -16 -22 -95
-33 -124 -17 -32 17 -36 0 -7 -30 l26 -28 -27 -25 c-15 -14 -36 -26 -46 -26
-26 0 -35 -21 -15 -36 24 -17 14 -45 -24 -67 -36 -22 -39 -44 -6 -53 26 -6 67
-59 86 -107 5 -16 18 -31 28 -34 20 -5 42 -55 42 -96 0 -34 18 -44 29 -15 4
13 12 21 17 18 5 -3 13 5 19 17 5 13 14 22 20 21 22 -4 70 14 90 35 22 23 105
85 137 102 10 6 22 21 25 35 3 14 15 37 25 53 l20 27 -44 87 c-42 84 -116 172
-190 224 -15 11 -28 27 -28 35 0 8 -7 14 -16 14 -14 0 -16 -8 -10 -46z"/>
<path d="M2408 3023 c-29 -46 -36 -77 -16 -71 17 6 50 74 46 96 -2 16 -9 10
-30 -25z"/>
<path d="M2246 2958 c-16 -28 -39 -116 -31 -127 2 -5 -2 -14 -10 -21 -8 -7
-15 -18 -15 -25 0 -8 -11 -26 -24 -42 -15 -18 -26 -48 -31 -82 -5 -38 -15 -61
-31 -76 -27 -25 -32 -47 -9 -39 9 4 19 -3 26 -20 16 -33 32 -34 19 -1 -10 25
3 36 14 13 4 -7 5 -4 2 8 -2 12 2 21 9 21 10 0 10 -8 2 -31 -5 -17 -14 -36
-18 -42 -12 -15 1 -117 16 -129 7 -6 13 -31 13 -55 1 -63 12 -130 23 -130 5 0
9 8 10 18 4 66 10 107 18 115 6 6 4 19 -6 34 -13 20 -14 28 -3 48 7 13 10 38
7 57 -5 38 13 148 25 148 4 0 8 6 8 14 0 8 13 24 30 36 16 12 33 33 37 48 3
15 15 39 26 54 22 30 32 143 14 155 -6 3 -21 -7 -34 -23 l-23 -29 2 35 c3 31
0 34 -22 35 -21 0 -25 5 -25 28 1 33 -1 33 -19 5z m104 -159 c0 -5 -4 -9 -10
-9 -5 0 -10 7 -10 16 0 8 5 12 10 9 6 -3 10 -10 10 -16z m-34 -47 c-12 -11
-18 7 -10 30 l8 23 4 -23 c2 -13 1 -26 -2 -30z"/>
<path d="M2162 2858 c5 -32 28 -35 28 -4 0 17 -5 26 -16 26 -10 0 -14 -7 -12
-22z"/>
<path d="M1715 1920 c-3 -5 -1 -10 4 -10 6 0 11 5 11 10 0 6 -2 10 -4 10 -3 0
-8 -4 -11 -10z"/>
<path d="M287 2833 c-15 -2 -25 -8 -22 -12 6 -11 55 -1 55 10 0 5 -1 8 -2 8
-2 -1 -15 -4 -31 -6z"/>
<path d="M5920 2416 c0 -9 5 -16 10 -16 6 0 10 4 10 9 0 6 -4 13 -10 16 -5 3
-10 -1 -10 -9z"/>
<path d="M6016 2403 c-6 -14 -5 -15 5 -6 7 7 10 15 7 18 -3 3 -9 -2 -12 -12z"/>
<path d="M6067 2403 c-11 -11 -8 -20 8 -20 8 0 15 6 15 14 0 14 -12 17 -23 6z"/>
<path d="M5776 2380 c-11 -3 -15 -9 -10 -12 5 -3 18 -2 28 2 11 3 15 9 10 12
-5 3 -18 2 -28 -2z"/>
<path d="M6116 2371 c-3 -5 0 -11 8 -14 8 -3 17 1 20 9 6 15 -19 20 -28 5z"/>
<path d="M5710 2341 c0 -6 5 -13 10 -16 6 -3 10 1 10 9 0 9 -4 16 -10 16 -5 0
-10 -4 -10 -9z"/>
<path d="M6170 2336 c0 -2 6 -9 14 -15 10 -9 15 -8 20 4 4 10 -1 15 -14 15
-11 0 -20 -2 -20 -4z"/>
<path d="M5663 2305 c-7 -8 -13 -17 -13 -20 0 -10 29 -5 36 6 10 17 -10 29
-23 14z"/>
<path d="M6222 2301 c-10 -6 -10 -10 2 -20 10 -8 16 -9 21 -1 3 5 1 10 -5 10
-6 0 -8 5 -5 10 7 12 4 12 -13 1z"/>
<path d="M5610 2249 c0 -5 9 -9 20 -9 11 0 20 2 20 4 0 2 -9 6 -20 9 -11 3
-20 1 -20 -4z"/>
<path d="M6280 2184 c0 -14 3 -14 15 -4 8 7 15 14 15 16 0 2 -7 4 -15 4 -8 0
-15 -7 -15 -16z"/>
<path d="M5607 1873 c-10 -9 -9 -23 2 -23 5 0 11 7 15 15 5 15 -5 20 -17 8z"/>
<path d="M5635 1831 c-3 -6 3 -15 14 -21 13 -7 22 -7 26 0 3 5 -1 10 -10 10
-9 0 -13 5 -10 10 3 6 2 10 -4 10 -5 0 -12 -4 -16 -9z"/>
<path d="M5686 1781 c-3 -5 1 -11 9 -15 9 -3 15 0 15 9 0 16 -16 20 -24 6z"/>
<path d="M6092 1774 c-10 -11 -10 -18 4 -39 9 -14 17 -25 19 -25 3 0 -2 70 -6
74 -2 2 -10 -2 -17 -10z"/>
<path d="M5746 1752 c-2 -4 4 -13 15 -20 22 -14 25 -7 5 14 -8 8 -17 11 -20 6z"/>
<path d="M6002 1710 c0 -14 2 -19 5 -12 2 6 2 18 0 25 -3 6 -5 1 -5 -13z"/>
<path d="M5900 1711 c0 -6 4 -12 8 -15 5 -3 9 1 9 9 0 8 -4 15 -9 15 -4 0 -8
-4 -8 -9z"/>
<path d="M6928 1443 c7 -3 16 -2 19 1 4 3 -2 6 -13 5 -11 0 -14 -3 -6 -6z"/>
</g>
</svg>
